<svg xmlns="http://www.w3.org/2000/svg" viewBox="0 0 20 11.41"><defs><style>.cls-1{fill:#fff;}</style></defs><g id="レイヤー_2" data-name="レイヤー 2"><g id="contents"><path class="cls-1" d="M11.55,0H8.45a.2.2,0,0,0-.14.06.18.18,0,0,0,0,.14L9,7.86A.18.18,0,0,0,9.16,8h1.68A.18.18,0,0,0,11,7.85L11.73.2a.18.18,0,0,0,0-.14A.2.2,0,0,0,11.55,0Z"/><rect class="cls-1" x="8.95" y="9.31" width="2.11" height="2.11" rx="0.18"/><path class="cls-1" d="M18.81.85l-1,.55a9.31,9.31,0,0,1,.06,8.51l1,.53A10.3,10.3,0,0,0,20,5.71,10.46,10.46,0,0,0,18.81.85Z"/><path class="cls-1" d="M15.65,2.49a7,7,0,0,1,.79,3.22,6.78,6.78,0,0,1-.74,3.1l1.05.53A8.08,8.08,0,0,0,16.68,2Z"/><path class="cls-1" d="M13.52,3.59a4.47,4.47,0,0,1,.53,2.12,4.41,4.41,0,0,1-.48,2l1,.53a5.62,5.62,0,0,0,.6-2.54A5.73,5.73,0,0,0,14.56,3Z"/><path class="cls-1" d="M2.17,1.39l-1-.53A10.3,10.3,0,0,0,0,5.59a10.52,10.52,0,0,0,1.19,4.86l1-.55a9.31,9.31,0,0,1-.06-8.51Z"/><path class="cls-1" d="M4.3,2.48,3.25,2a8.1,8.1,0,0,0,.07,7.4l1-.54a7,7,0,0,1-.79-3.22A6.82,6.82,0,0,1,4.3,2.48Z"/><path class="cls-1" d="M6.43,3.58l-1-.53a5.62,5.62,0,0,0-.6,2.54,5.76,5.76,0,0,0,.66,2.67l1-.55A4.47,4.47,0,0,1,6,5.59,4.35,4.35,0,0,1,6.43,3.58Z"/></g></g></svg>