<!--?xml version="1.0" encoding="utf-8"?-->
<!-- Generator: Adobe Illustrator 18.1.1, SVG Export Plug-In . SVG Version: 6.00 Build 0)  -->

<svg version="1.1" id="_x32_" xmlns="http://www.w3.org/2000/svg" xmlns:xlink="http://www.w3.org/1999/xlink" x="0px" y="0px" viewBox="0 0 512 512" style="width: 256px; height: 256px; opacity: 1;" xml:space="preserve">
<style type="text/css">
	.st0{fill:#4B4B4B;}
</style>
<g>
	<path class="st0" d="M470.9,25.574c0.01,0,0.018-0.01,0.028-0.01l0.307-0.168L470.9,25.574z" style="fill: rgb(255, 255, 255);"></path>
	<path class="st0" d="M498.415,26.113c-4.377-2.597-9.302-3.92-14.237-3.91c-4.526-0.01-9.097,1.108-13.251,3.361l-43.624,23.623
		l-57.116-30.95c-4.134-2.235-8.706-3.362-13.259-3.362c-4.554,0-9.126,1.127-13.26,3.362l-57.079,30.96L229.49,18.245
		c-4.134-2.244-8.706-3.371-13.259-3.371c-4.553,0-9.125,1.127-13.26,3.362l-57.08,30.96l-43.549-23.613
		c-4.116-2.244-8.698-3.372-13.269-3.372c-4.908-0.008-9.852,1.304-14.238,3.921c-8.408,5.01-13.567,14.098-13.567,23.893v365.327
		h28.605V51.357l42.758,23.185c4.134,2.244,8.697,3.362,13.259,3.362c4.554,0.008,9.126-1.118,13.251-3.352l57.089-30.961
		l57.098,30.952c4.134,2.244,8.697,3.362,13.26,3.362c4.553,0.008,9.125-1.118,13.25-3.352l57.09-30.961l57.134,30.961
		c4.116,2.225,8.688,3.352,13.251,3.352c4.553,0,9.125-1.118,13.26-3.362l42.823-23.204v372.021
		c-0.01,12.515-5.028,23.716-13.232,31.938c-8.212,8.194-19.414,13.214-31.929,13.223H95.387
		c-18.484-0.01-35.086-7.45-47.219-19.564c-12.114-12.133-19.554-28.736-19.563-47.218V103.948H0v297.791
		c0.008,52.684,42.702,95.377,95.387,95.387h342.848c40.747-0.01,73.756-33.019,73.765-73.766V50.016
		C512,40.22,506.842,31.132,498.415,26.113z" style="fill: rgb(255, 255, 255);"></path>
	<rect x="122.762" y="125.076" class="st0" width="330.017" height="102.073" style="fill: rgb(255, 255, 255);"></rect>
	<rect x="336.349" y="267.187" class="st0" width="116.43" height="125.547" style="fill: rgb(255, 255, 255);"></rect>
	<rect x="122.762" y="269.087" class="st0" width="171.629" height="19.07" style="fill: rgb(255, 255, 255);"></rect>
	<rect x="122.762" y="371.765" class="st0" width="171.629" height="19.07" style="fill: rgb(255, 255, 255);"></rect>
	<rect x="122.762" y="320.43" class="st0" width="171.629" height="19.07" style="fill: rgb(255, 255, 255);"></rect>
</g>
</svg>
