<svg xmlns="http://www.w3.org/2000/svg" viewBox="0 0 30 30"><defs><style>.cls-1{fill:#fff;}.cls-2{fill:#d6b617;}.cls-3{fill:none;stroke:#d6b617;stroke-linecap:round;stroke-miterlimit:10;stroke-width:3.5px;}</style></defs><g id="レイヤー_2" data-name="レイヤー 2"><g id="レイヤー_2-2" data-name="レイヤー 2"><rect class="cls-1" x="1.75" y="1.75" width="26.5" height="26.5" rx="12.51"/><path class="cls-2" d="M15.74,3.5A10.78,10.78,0,0,1,26.5,14.26v1.48A10.78,10.78,0,0,1,15.74,26.5H14.26A10.78,10.78,0,0,1,3.5,15.74V14.26A10.78,10.78,0,0,1,14.26,3.5h1.48m0-3.5H14.26A14.31,14.31,0,0,0,0,14.26v1.48A14.31,14.31,0,0,0,14.26,30h1.48A14.31,14.31,0,0,0,30,15.74V14.26A14.31,14.31,0,0,0,15.74,0Z"/><line class="cls-3" x1="15" y1="9" x2="15" y2="21"/></g></g></svg>