<!--?xml version="1.0" encoding="utf-8"?-->
<!-- Generator: Adobe Illustrator 18.1.1, SVG Export Plug-In . SVG Version: 6.00 Build 0)  -->

<svg version="1.1" id="_x32_" xmlns="http://www.w3.org/2000/svg" xmlns:xlink="http://www.w3.org/1999/xlink" x="0px" y="0px" viewBox="0 0 512 512" style="width: 256px; height: 256px; opacity: 1;" xml:space="preserve">
<style type="text/css">
	.st0{fill:#4B4B4B;}
</style>
<g>
	<path class="st0" d="M381.187,0H130.812c-22.566,0-40.941,18.476-40.941,41.032V470.95c0,22.574,18.376,41.05,40.941,41.05h250.375
		c22.466,0,40.942-18.476,40.942-41.05v-40.398v-24.75V41.032C422.129,18.476,403.653,0,381.187,0z M255.95,473.38
		c-6.772,0-12.248-5.476-12.248-12.257c0-6.782,5.475-12.348,12.248-12.348c6.782,0,12.348,5.566,12.348,12.348
		C268.298,467.903,262.731,473.38,255.95,473.38z M396.509,405.802v17.352H115.401V70.097h281.108V405.802z" style="fill: rgb(255, 255, 255);"></path>
	<path class="st0" d="M151.546,268.932l24.16,3.508c1.487,0.118,2.811,1.052,3.373,2.466l7.843,18.884
		c0.562,1.378,0.316,2.992-0.654,4.126l-14.424,19.392c-2.293,2.674-2.158,6.681,0.344,9.183l11.433,11.423
		c2.492,2.502,6.482,2.638,9.202,0.372l19.347-14.433c1.17-0.97,2.738-1.25,4.152-0.653l18.884,7.788
		c1.379,0.626,2.34,1.912,2.458,3.4l3.508,24.152c0.282,3.508,3.228,6.236,6.754,6.219l16.156,0.018
		c3.527,0,6.464-2.719,6.744-6.236l3.518-24.135c0.1-1.505,1.061-2.81,2.467-3.4l18.857-7.823c1.396-0.58,3.001-0.327,4.134,0.67
		l19.383,14.416c2.693,2.284,6.719,2.148,9.175-0.354l11.433-11.396c2.529-2.529,2.665-6.536,0.371-9.21l-14.415-19.402
		c-1.006-1.151-1.26-2.72-0.671-4.134l7.805-18.848c0.599-1.432,1.895-2.366,3.409-2.484l24.124-3.49
		c3.527-0.3,6.228-3.237,6.256-6.763l-0.019-16.156c-0.009-3.544-2.72-6.445-6.246-6.744l-24.116-3.49
		c-1.514-0.127-2.829-1.061-3.373-2.484l-7.869-18.885c-0.562-1.378-0.308-2.991,0.68-4.124l14.433-19.392
		c2.285-2.675,2.148-6.664-0.371-9.175l-11.406-11.414c-2.483-2.502-6.509-2.656-9.192-0.362l-19.401,14.424
		c-1.124,0.961-2.747,1.242-4.116,0.652l-18.866-7.842c-1.396-0.535-2.349-1.877-2.475-3.382l-3.509-24.115
		c-0.289-3.518-3.227-6.256-6.744-6.238l-16.164-0.018c-3.518,0.018-6.483,2.72-6.755,6.238l-3.499,24.134
		c-0.118,1.505-1.07,2.811-2.458,3.4l-18.893,7.815c-1.387,0.59-2.974,0.318-4.143-0.643l-19.383-14.433
		c-2.675-2.321-6.673-2.148-9.175,0.354l-11.424,11.414c-2.493,2.511-2.656,6.518-0.353,9.193l14.424,19.392
		c0.978,1.134,1.25,2.764,0.634,4.161l-7.787,18.848c-0.599,1.414-1.913,2.376-3.409,2.466l-24.116,3.509
		c-3.535,0.299-6.274,3.218-6.246,6.744v16.156C145.336,265.714,148.065,268.679,151.546,268.932z M223.611,221.726
		c8.667-8.631,20.154-13.409,32.402-13.409c12.213,0,23.717,4.778,32.357,13.409c8.658,8.649,13.427,20.172,13.418,32.375
		c-0.018,12.238-4.76,23.761-13.408,32.374c-8.658,8.648-20.153,13.399-32.384,13.399c-12.248,0-23.717-4.75-32.374-13.399
		c-8.631-8.613-13.427-20.136-13.391-32.374C210.203,241.898,214.971,230.375,223.611,221.726z" style="fill: rgb(255, 255, 255);"></path>
</g>
</svg>
